# xmcd
#
# Track frame offsets: 
#        150
#        27420
#        41115
#        51712
#        64360
#        78660
#        88025
#        101432
#        113930
#        127285
#        140937
#        154547
#        166555
#        180440
#        191765
#
# Disc length: 2780 seconds
#
# Revision: 1
# Processed by: cddbd v1.5.2PL0 Copyright (c) Steve Scherf et al.
# Submitted via: ExactAudioCopy v0.95a4
#
DISCID=dc0ada0f
DTITLE=Marlena Shaw - Spice Of Life
DYEAR=1969
DGENRE=Soul
TTITLE0=Woman Of The Ghetto
TTITLE1=Stormy Monday
TTITLE2=Where Can I Go
TTITLE3=I'm Satisfied
TTITLE4=I Wish I Knew
TTITLE5=Liberation Conversation
TTITLE6=California Soul
TTITLE7=Go Away Little Boy
TTITLE8=Lookin Thru The Eyes Of Love
TTITLE9=Anyone Can Move A Mountain
TTITLE10=Mercy, Mercy, Mercy
TTITLE11=Waiting For Charles To Come Home
TTITLE12=The House That Jack Buily
TTITLE13=Brother Where Are You
TTITLE14=We Could Have Been Fine
EXTD=
EXTT0=
EXTT1=
EXTT2=
EXTT3=
EXTT4=
EXTT5=
EXTT6=
EXTT7=
EXTT8=
EXTT9=
EXTT10=
EXTT11=
EXTT12=
EXTT13=
EXTT14=
PLAYORDER=
